<svg xmlns="http://www.w3.org/2000/svg" viewBox="0 0 64 64" role="img" aria-label="TaskFlow">
  <defs>
    <linearGradient id="leaf_grad" x1="0" y1="0" x2="1" y2="1">
      <stop offset="0%" stop-color="#c2410c"/>
      <stop offset="60%" stop-color="#d97706"/>
      <stop offset="100%" stop-color="#f59e0b"/>
    </linearGradient>
  </defs>
  <rect width="64" height="64" rx="14" fill="#fffbeb"/>
  <path d="M32 10c3.5 8 5 14 5 21 0 10-5 21-5 21s-5-11-5-21c0-7 1.5-13 5-21z" fill="url(#leaf_grad)"/>
  <path d="M32 31v20" stroke="#7c2d12" stroke-width="1.5" fill="none" stroke-linecap="round"/>
  <path d="M32 36c-5-2-9-2-14 0M32 40c5-2 9-2 14 0M32 45c-4-1-7-1-11 0" stroke="#7c2d12" stroke-width="1.2" fill="none" stroke-linecap="round" opacity=".9"/>
  <path d="M32 52c8 6 16 6 24 0" stroke="#9a3412" stroke-width="2.5" fill="none" stroke-linecap="round"/>
</svg>